<svg width="136" height="136" viewBox="0 0 136 136" fill="none" xmlns="http://www.w3.org/2000/svg">
<path fill-rule="evenodd" clip-rule="evenodd" d="M67.7269 135.273C104.979 135.273 135.178 105.074 135.178 67.8221C135.178 30.5701 104.979 0.371338 67.7269 0.371338C30.4749 0.371338 0.276123 30.5701 0.276123 67.8221C0.276123 105.074 30.4749 135.273 67.7269 135.273ZM80.5934 33C87.2194 34.1133 93.6698 36.0842 99.78 38.8624C110.306 54.1467 115.536 71.3853 113.605 91.2753C106.493 96.4978 98.5273 100.464 90.0587 103C88.1517 100.459 86.4657 97.7612 85.0188 94.9365C87.7753 93.9135 90.4359 92.6519 92.97 91.1663C92.3116 90.7231 91.6606 90.2291 91.0243 89.7134C83.6649 93.1505 75.6324 94.9326 67.4999 94.9326C59.3674 94.9326 51.335 93.1505 43.9756 89.7134C43.6896 89.9314 43.399 90.1523 43.1047 90.3737C42.7516 90.639 42.3929 90.9048 42.0299 91.1663C44.5591 92.6494 47.2148 93.9086 49.9664 94.9292C48.5177 97.7552 46.8318 100.455 44.9265 103C36.4651 100.454 28.5059 96.4857 21.3949 91.2679C19.7491 74.1167 23.0408 56.7184 35.1832 38.877C41.2996 36.0983 47.7544 34.1227 54.3845 33C55.2909 34.6099 56.1112 36.2661 56.8423 37.9615C63.9003 36.9054 71.0776 36.9054 78.1356 37.9615C78.8663 36.2659 79.6866 34.6097 80.5934 33ZM43.6758 71.5015C43.6758 76.5865 47.4647 80.72 52.0511 80.72C56.7252 80.72 60.3387 76.5865 60.4192 71.5015C60.4998 66.4164 56.7399 62.2466 52.0365 62.2466C47.3331 62.2466 43.6758 66.4164 43.6758 71.5015ZM74.5807 71.5015C74.5807 76.5865 78.3551 80.72 82.9487 80.72C87.6229 80.72 91.229 76.5865 91.3096 71.5015C91.39 66.4164 87.6594 62.2466 82.9487 62.2466C78.238 62.2466 74.5807 66.4164 74.5807 71.5015Z" fill="white"/>
</svg>
