<svg width="136" height="136" viewBox="0 0 136 136" fill="none" xmlns="http://www.w3.org/2000/svg">
<path fill-rule="evenodd" clip-rule="evenodd" d="M68.3212 135.273C105.573 135.273 135.772 105.074 135.772 67.8221C135.772 30.5701 105.573 0.371338 68.3212 0.371338C31.0691 0.371338 0.870361 30.5701 0.870361 67.8221C0.870361 105.074 31.0691 135.273 68.3212 135.273ZM42.3608 49.2175C46.8582 49.2175 50.504 45.5717 50.504 41.0743C50.504 36.577 46.8582 32.9312 42.3608 32.9312C37.8635 32.9312 34.2177 36.577 34.2177 41.0743C34.2177 45.5717 37.8635 49.2175 42.3608 49.2175ZM58.3977 101.03V55.5247H71.8247V62.2819C71.8247 59.6662 77.766 54.3278 84.999 54.3278C102.494 54.3278 102.448 67.9021 102.423 75.6922C102.422 75.9828 102.421 76.2653 102.421 76.5388V101.03H88.3227V76.5388C88.3227 74.1448 88.3227 67.0958 80.2097 67.0958C74.4604 67.0958 72.422 73.3911 72.4957 76.5388V101.03H58.3977ZM49.3251 101.03H35.2766V55.5247H49.3251V101.03Z" fill="white"/>
</svg>
