<svg width="67" height="68" viewBox="0 0 67 68" fill="currentColor" xmlns="http://www.w3.org/2000/svg">
<path d="M63.9075 33.7321C63.9075 50.9331 50.1483 64.8227 33.2422 64.8227C16.3362 64.8227 2.5769 50.9331 2.5769 33.7321C2.5769 28.9219 3.65262 24.3742 5.5702 20.3164C10.5189 9.84424 21.0622 2.64145 33.2422 2.64145C45.4222 2.64145 55.9655 9.84424 60.9142 20.3164C62.8318 24.3742 63.9075 28.9219 63.9075 33.7321ZM36.729 55.7128C38.6779 53.0821 42.2175 48.1389 45.2809 42.9575C46.8115 40.3687 48.2515 37.6731 49.316 35.1456C50.3554 32.6776 51.1456 30.1219 51.1456 27.8909C51.1456 18.0032 43.13 9.98764 33.2423 9.98764C23.3546 9.98764 15.339 18.0032 15.339 27.8909C15.339 30.1219 16.1292 32.6776 17.1686 35.1456C18.2331 37.6731 19.6731 40.3687 21.2037 42.9575C24.2671 48.1389 27.8067 53.0821 29.7556 55.7128C31.4976 58.0642 34.987 58.0643 36.729 55.7128ZM37.3506 26.5325C37.3506 28.8015 35.5112 30.6408 33.2423 30.6408C30.9734 30.6408 29.134 28.8015 29.134 26.5325C29.134 24.2636 30.9734 22.4243 33.2423 22.4243C35.5112 22.4243 37.3506 24.2636 37.3506 26.5325Z" fill="white" stroke="white" stroke-width="5"/>
</svg>
