<svg width="70" height="71" viewBox="0 0 70 71" fill="none" xmlns="http://www.w3.org/2000/svg">
<path d="M34.2929 9.24389C32.7027 9.26858 31.1455 9.43925 29.6344 9.74384C21.5655 11.3703 14.8751 16.7971 11.4344 24.0781C11.0487 24.8943 10.7037 25.7341 10.402 26.5946C9.44571 29.3229 8.92646 32.2571 8.92646 35.3083C8.92646 37.136 9.1128 38.9225 9.46816 40.6483C11.5625 50.8197 19.5173 58.8334 29.6344 60.8727C31.1455 61.1773 32.7027 61.3479 34.2929 61.3726L34.7144 61.5085L35.117 61.3723C36.6231 61.3478 38.0997 61.1924 39.5355 60.9162C49.7578 58.95 57.8134 50.8935 59.9229 40.6483C60.2783 38.9225 60.4646 37.136 60.4646 35.3083C60.4646 32.2571 59.9454 29.3229 58.989 26.5946C58.6874 25.7341 58.3424 24.8943 57.9567 24.0781C54.4846 16.7308 47.7032 11.2713 39.5355 9.70028C38.0997 9.42411 36.6231 9.26867 35.117 9.24419L34.7144 9.10801L34.2929 9.24389ZM51.4604 35.3083C51.4604 35.8672 51.4342 36.419 51.383 36.9625C50.9397 37.3044 50.3949 37.6672 49.7279 38.0288C49.7695 37.1504 49.791 36.2439 49.791 35.3083C49.791 34.9267 49.7875 34.5499 49.7804 34.178C50.3433 34.0114 50.8769 33.8359 51.383 33.6529C51.4342 34.1967 51.4604 34.7488 51.4604 35.3083ZM17.9307 35.3083C17.9307 34.7488 17.9569 34.1967 18.0081 33.6529C18.3563 33.7788 18.7175 33.9012 19.0923 34.0195C19.0826 34.4429 19.0778 34.8724 19.0778 35.3083C19.0778 36.136 19.0954 36.9411 19.1295 37.7243C18.6982 37.465 18.327 37.2084 18.0081 36.9625C17.9569 36.419 17.9307 35.8672 17.9307 35.3083ZM34.6955 26.9635C32.5441 26.9635 30.6519 26.8787 28.9901 26.7342C29.9009 22.9041 31.3466 20.4391 32.6211 18.8826C32.7849 18.6825 32.9476 18.4954 33.108 18.3204C33.6302 18.2705 34.1598 18.245 34.6955 18.245C35.1454 18.245 35.5908 18.263 36.0312 18.2983C36.1669 18.4555 36.3044 18.6226 36.4429 18.8C37.6657 20.367 39.063 22.869 39.9354 26.7726C38.388 26.8936 36.6485 26.9635 34.6955 26.9635ZM34.6955 40.8918C32.3053 40.8918 30.2154 40.7574 28.3905 40.5296C28.2077 39.0745 28.0975 37.4672 28.0835 35.6933C30.0693 35.8702 32.2655 35.9677 34.6955 35.9677C36.9145 35.9677 38.9383 35.8864 40.785 35.7377C40.7702 37.517 40.6633 39.1299 40.4871 40.5904C38.7862 40.7811 36.8645 40.8918 34.6955 40.8918ZM36.4429 51.8165C36.3045 51.9939 36.167 52.1609 36.0313 52.3181C35.5909 52.3535 35.1454 52.3715 34.6955 52.3715C34.1598 52.3715 33.6302 52.3459 33.1078 52.2959C32.9474 52.121 32.7848 51.9339 32.6211 51.7339C32.1856 51.2021 31.7325 50.5671 31.2883 49.8114C32.3768 49.8671 33.5118 49.8961 34.6955 49.8961C35.7518 49.8961 36.7693 49.873 37.7494 49.8285C37.3136 50.6144 36.8688 51.2707 36.4429 51.8165ZM66.8872 35.3083C66.8872 53.3631 52.4446 67.9449 34.6955 67.9449C16.9465 67.9449 2.50378 53.3631 2.50378 35.3083C2.50378 30.2594 3.63291 25.4856 5.64588 21.2259C10.8404 10.2337 21.9082 2.67163 34.6955 2.67163C47.4828 2.67163 58.5506 10.2337 63.7452 21.2259C65.7581 25.4856 66.8872 30.2594 66.8872 35.3083Z" fill="white" stroke="white" stroke-width="5"/>
</svg>
