<svg width="71" height="71" viewBox="0 0 71 71" fill="none" xmlns="http://www.w3.org/2000/svg">
<path d="M67.7762 35.1366C67.7762 53.1915 53.3335 67.7732 35.5844 67.7732C17.8354 67.7732 3.3927 53.1915 3.3927 35.1366C3.3927 30.0878 4.52183 25.314 6.53479 21.0543C11.7293 10.062 22.7971 2.5 35.5844 2.5C48.3718 2.5 59.4396 10.062 64.6341 21.0543C66.647 25.314 67.7762 30.0878 67.7762 35.1366ZM35.5845 9.06913C33.8544 9.06913 32.1618 9.24196 30.5233 9.57221C22.4544 11.1987 15.7641 16.6255 12.3233 23.9065C11.9376 24.7227 11.5926 25.5624 11.291 26.423C10.3346 29.1513 9.81538 32.0854 9.81538 35.1366C9.81538 36.9644 10.0017 38.7508 10.3571 40.4767C12.4514 50.6481 20.4062 58.6617 30.5233 60.701C32.1618 61.0313 33.8544 61.2041 35.5845 61.2041C37.2367 61.2041 38.8549 61.0465 40.4244 60.7446C50.6467 58.7784 58.7023 50.7219 60.8118 40.4767C61.1672 38.7508 61.3535 36.9644 61.3535 35.1366C61.3535 32.0854 60.8343 29.1513 59.878 26.423C59.5763 25.5624 59.2313 24.7227 58.8456 23.9065C55.3735 16.5591 48.5921 11.0997 40.4244 9.52865C38.8549 9.22677 37.2367 9.06913 35.5845 9.06913ZM18.8196 35.1366C18.8196 34.5772 18.8459 34.025 18.897 33.4813C19.2452 33.6072 19.6064 33.7295 19.9812 33.8478C19.9716 34.2712 19.9667 34.7008 19.9667 35.1366C19.9667 35.9643 19.9843 36.7695 20.0184 37.5526C19.5872 37.2934 19.2159 37.0368 18.897 36.7909C18.8458 36.2474 18.8196 35.6956 18.8196 35.1366ZM35.5845 35.7961C37.8034 35.7961 39.8273 35.7148 41.674 35.566C41.6591 37.3454 41.5522 38.9582 41.376 40.4188C39.6751 40.6095 37.7534 40.7202 35.5845 40.7202C33.1942 40.7202 31.1043 40.5858 29.2794 40.358C29.0967 38.9029 28.9864 37.2956 28.9724 35.5217C30.9583 35.6986 33.1544 35.7961 35.5845 35.7961ZM40.8243 26.601C39.2769 26.722 37.5374 26.7919 35.5845 26.7919C33.433 26.7919 31.5408 26.707 29.8791 26.5625C30.7898 22.7325 32.2355 20.2674 33.51 18.711C33.6738 18.5109 33.8365 18.3237 33.9969 18.1488C34.5191 18.0989 35.0487 18.0734 35.5845 18.0734C36.0343 18.0734 36.4798 18.0914 36.9201 18.1266C37.0559 18.2839 37.1933 18.451 37.3318 18.6284C38.5546 20.1954 39.9519 22.6973 40.8243 26.601ZM50.68 35.1366C50.68 34.7551 50.6764 34.3783 50.6693 34.0063C51.2322 33.8398 51.7658 33.6643 52.2719 33.4813C52.3231 34.025 52.3493 34.5772 52.3493 35.1366C52.3493 35.6956 52.3231 36.2474 52.272 36.7909C51.8286 37.1327 51.2838 37.4955 50.6169 37.8572C50.6584 36.9788 50.68 36.0722 50.68 35.1366ZM37.3318 51.6448C37.1934 51.8222 37.0559 51.9893 36.9203 52.1465C36.4798 52.1818 36.0343 52.1999 35.5845 52.1999C35.0487 52.1999 34.5191 52.1743 33.9967 52.1243C33.8363 51.9494 33.6737 51.7623 33.51 51.5623C33.0745 51.0305 32.6214 50.3955 32.1772 49.6398C33.2657 49.6954 34.4007 49.7244 35.5845 49.7244C36.6407 49.7244 37.6582 49.7014 38.6383 49.6568C38.2025 50.4428 37.7577 51.0991 37.3318 51.6448Z" fill="white" stroke="white" stroke-width="5"/>
</svg>
