<svg width="70" height="70" viewBox="0 0 70 70" fill="none" xmlns="http://www.w3.org/2000/svg">
<path d="M55.2372 31.0548C44.0652 24.4201 25.6373 23.8101 14.9723 27.0469C13.2596 27.5667 11.4484 26.5995 10.9296 24.8874C10.4105 23.1735 11.3763 21.3637 13.0903 20.843C25.333 17.1269 45.6847 17.8446 58.546 25.4792C60.0864 26.3938 60.5918 28.3833 59.6788 29.9211C58.765 31.4615 56.7738 31.9693 55.2372 31.0548ZM54.8713 40.8817C54.0874 42.1535 52.4245 42.5525 51.1543 41.7715C41.8403 36.0462 27.6377 34.3877 16.6185 37.7326C15.1896 38.1644 13.6802 37.3586 13.2462 35.9324C12.8156 34.5034 13.6217 32.9969 15.0481 32.5623C27.636 28.7425 43.2847 30.5927 53.9823 37.1667C55.2525 37.9491 55.6523 39.6128 54.8713 40.8817ZM50.6304 50.3191C50.0075 51.3406 48.6778 51.6605 47.6601 51.0379C39.5212 46.0638 29.2772 44.9405 17.213 47.696C16.0504 47.9625 14.8917 47.2341 14.6266 46.0715C14.3603 44.9094 15.0861 43.7506 16.2512 43.4853C29.4534 40.4672 40.7784 41.7662 49.9136 47.3484C50.9321 47.9704 51.2529 49.301 50.6304 50.3191ZM34.7356 0.329285C15.5944 0.329285 0.0769043 15.8464 0.0769043 34.9873C0.0769043 54.1304 15.5944 69.6463 34.7356 69.6463C53.8772 69.6463 69.3939 54.1304 69.3939 34.9873C69.3939 15.8464 53.8772 0.329285 34.7356 0.329285Z" fill="white"/>
</svg>
