<svg width="98" height="97" viewBox="0 0 98 97" fill="none" xmlns="http://www.w3.org/2000/svg">
<path fill-rule="evenodd" clip-rule="evenodd" d="M48.854 0.5C21.839 0.5 0 22.5 0 49.717C0 71.473 13.993 89.889 33.405 96.407C35.832 96.897 36.721 95.348 36.721 94.045C36.721 92.904 36.641 88.993 36.641 84.918C23.051 87.852 20.221 79.051 20.221 79.051C18.037 73.347 14.801 71.881 14.801 71.881C10.353 68.866 15.125 68.866 15.125 68.866C20.059 69.192 22.648 73.918 22.648 73.918C27.015 81.414 34.052 79.296 36.883 77.992C37.287 74.814 38.582 72.614 39.957 71.392C29.118 70.251 17.714 66.014 17.714 47.109C17.714 41.731 19.654 37.331 22.728 33.909C22.243 32.687 20.544 27.634 23.214 20.871C23.214 20.871 27.339 19.567 36.64 25.923C40.6221 24.8457 44.7288 24.2976 48.854 24.293C52.979 24.293 57.184 24.864 61.067 25.923C70.369 19.567 74.494 20.871 74.494 20.871C77.164 27.634 75.464 32.687 74.979 33.909C78.134 37.331 79.994 41.731 79.994 47.109C79.994 66.014 68.59 70.169 57.67 71.392C59.45 72.94 60.986 75.873 60.986 80.518C60.986 87.118 60.906 92.415 60.906 94.044C60.906 95.348 61.796 96.897 64.222 96.408C83.634 89.888 97.627 71.473 97.627 49.717C97.707 22.5 75.788 0.5 48.854 0.5Z" fill="white"/>
</svg>
