<svg width="71" height="72" viewBox="0 0 71 72" fill="none" xmlns="http://www.w3.org/2000/svg">
<path d="M67.8872 36.2686C67.8872 54.4503 53.343 69.1349 35.4687 69.1349C17.5944 69.1349 3.05017 54.4503 3.05017 36.2686C3.05017 31.1843 4.18724 26.3769 6.21437 22.0872C11.4454 11.0177 22.5911 3.40228 35.4687 3.40228C48.3463 3.40228 59.492 11.0177 64.723 22.0872C66.7502 26.3769 67.8872 31.1843 67.8872 36.2686ZM35.4687 61.0093H35.5634C37.5162 61.0094 39.5862 61.0094 41.5079 60.7466C43.488 60.4758 45.5109 59.9045 47.2894 58.6181C50.9576 55.9651 52.6138 51.0439 52.6138 43.1746C52.6138 37.0018 49.5907 31.5174 44.9442 28.3082C45.9652 26.6355 46.5549 24.6685 46.5549 22.5649C46.5549 16.4693 41.6135 11.5279 35.5179 11.5279C29.4223 11.5279 24.4808 16.4693 24.4808 22.5649C24.4808 24.6485 25.0594 26.5981 26.0626 28.2605C21.3768 31.4629 18.3236 36.9713 18.3236 43.1746C18.3236 50.1055 20.0568 54.8257 23.5194 57.6907C26.8803 60.4715 31.3125 61.0093 35.4687 61.0093Z" fill="white" stroke="white" stroke-width="5"/>
</svg>
